
<?xml version="1.0" encoding="utf-8"?>
<svg xmlns="http://www.w3.org/2000/svg" xmlns:xlink="http://www.w3.org/1999/xlink" style="margin: auto; background: none; display: block; shape-rendering: auto; animation-play-state: running; animation-delay: 0s;" width="200px" height="200px" viewBox="0 0 100 100" preserveAspectRatio="xMidYMid">
<g transform="translate(50 50)" style="animation-play-state: running; animation-delay: 0s;">
  <g transform="scale(0.7)" style="animation-play-state: running; animation-delay: 0s;">
    <g transform="translate(-50 -50)" style="animation-play-state: running; animation-delay: 0s;">
      <g style="animation-play-state: running; animation-delay: 0s;" transform="rotate(339.623 49.9999 50)">
        <animateTransform attributeName="transform" type="rotate" repeatCount="indefinite" values="0 50 50;360 50 50" keyTimes="0;1" dur="1.25s" style="animation-play-state: running; animation-delay: 0s;"></animateTransform>
        <path fill-opacity="0.8" fill="#ffa123" d="M50 50L50 0A50 50 0 0 1 100 50Z" style="animation-play-state: running; animation-delay: 0s;"></path>
      </g>
      <g style="animation-play-state: running; animation-delay: 0s;" transform="rotate(74.7326 50 50)">
        <animateTransform attributeName="transform" type="rotate" repeatCount="indefinite" values="0 50 50;360 50 50" keyTimes="0;1" dur="1.6666666666666665s" style="animation-play-state: running; animation-delay: 0s;"></animateTransform>
        <path fill-opacity="0.8" fill="#3d6bff" d="M50 50L50 0A50 50 0 0 1 100 50Z" transform="rotate(90 50 50)" style="animation-play-state: running; animation-delay: 0s;"></path>
      </g>
      <g style="animation-play-state: running; animation-delay: 0s;" transform="rotate(169.812 50 50)">
        <animateTransform attributeName="transform" type="rotate" repeatCount="indefinite" values="0 50 50;360 50 50" keyTimes="0;1" dur="2.5s" style="animation-play-state: running; animation-delay: 0s;"></animateTransform>
        <path fill-opacity="0.8" fill="#ffa123" d="M50 50L50 0A50 50 0 0 1 100 50Z" transform="rotate(180 50 50)" style="animation-play-state: running; animation-delay: 0s;"></path>
      </g>
      <g style="animation-play-state: running; animation-delay: 0s;" transform="rotate(264.906 50 50)">
        <animateTransform attributeName="transform" type="rotate" repeatCount="indefinite" values="0 50 50;360 50 50" keyTimes="0;1" dur="5s" style="animation-play-state: running; animation-delay: 0s;"></animateTransform>
        <path fill-opacity="0.8" fill="#3d6bff" d="M50 50L50 0A50 50 0 0 1 100 50Z" transform="rotate(270 50 50)" style="animation-play-state: running; animation-delay: 0s;"></path>
      </g>
    </g>
  </g>
</g>
</svg>
